<svg xmlns="http://www.w3.org/2000/svg" version="1.1" xmlns:xlink="http://www.w3.org/1999/xlink" width="36" height="24"><svg xmlns="http://www.w3.org/2000/svg" version="1.1" xmlns:xlink="http://www.w3.org/1999/xlink" width="36" height="24"><svg width="36" height="24" viewBox="0 0 36 24" fill="none" xmlns="http://www.w3.org/2000/svg">
<mask id="mask0_2484_67" style="mask-type:alpha" maskUnits="userSpaceOnUse" x="0" y="0" width="36" height="24">
<path d="M19.7833 23.7201H32.8544C33.2715 23.7201 33.6708 23.5725 34.032 23.3643C34.3933 23.1561 34.7656 22.8947 34.9741 22.534C35.1825 22.1734 35.3275 21.7643 35.3274 21.348C35.3272 20.9316 35.1829 20.5226 34.9741 20.1622L26.1422 4.86264C25.9338 4.50205 25.6791 4.24057 25.318 4.03238C24.9568 3.82427 24.4396 3.67658 24.0226 3.67658C23.6056 3.67658 23.2062 3.82427 22.8451 4.03238C22.4839 4.24057 22.2292 4.50205 22.0207 4.86264L19.7833 8.77645L15.3085 1.18572C15.0999 0.825223 14.8455 0.445339 14.4842 0.237229C14.1229 0.029035 13.7238 0 13.3067 0C12.8896 0 12.4903 0.029035 12.129 0.237229C11.7678 0.445339 11.3957 0.825223 11.187 1.18572L0.235544 20.1622C0.0267462 20.5226 0.000167394 20.9316 7.55486e-07 21.348C-0.000165883 21.7643 0.0270795 22.1734 0.235544 22.534C0.444009 22.8946 0.816363 23.1561 1.17755 23.3643C1.53882 23.5725 1.93801 23.7201 2.35519 23.7201H10.5982C13.8644 23.7201 16.2418 22.2444 17.8992 19.4505L21.903 12.453L24.0226 8.77645L30.4993 19.9248H21.903L19.7833 23.7201ZM10.4805 19.9248H4.71029L13.3067 4.98121L17.6637 12.453L14.7776 17.5202C13.6769 19.333 12.422 19.9248 10.4805 19.9248Z" fill="#00DC82"></path>
</mask>
<g mask="url(#mask0_2484_67)">
<rect x="28.8672" y="-0.65625" width="16.8805" height="34" transform="rotate(25.3066 28.8672 -0.65625)" fill="#F3B01C"></rect>
<rect x="20.4434" y="-4.4375" width="14.031" height="34" transform="rotate(25.3066 20.4434 -4.4375)" fill="#8D2676"></rect>
<rect x="9.52539" y="-7.65625" width="14.0083" height="34" transform="rotate(30.3746 9.52539 -7.65625)" fill="#EE342F"></rect>
</g>
</svg></svg><style>@media (prefers-color-scheme: light) { :root { filter: none; } }
@media (prefers-color-scheme: dark) { :root { filter: none; } }
</style></svg>